<svg width="19" height="19" viewBox="0 0 19 19" fill="none" xmlns="http://www.w3.org/2000/svg">
<g clip-path="url(#clip0_1_173)">
<path d="M8.51788 0.899902H11.3304C11.798 0.899902 12.1741 1.27607 12.1741 1.74365V7.6499H15.2573C15.8831 7.6499 16.196 8.40576 15.753 8.84873L10.4058 14.1995C10.1421 14.4632 9.70968 14.4632 9.44601 14.1995L4.09171 8.84873C3.64874 8.40576 3.96163 7.6499 4.58741 7.6499H7.67413V1.74365C7.67413 1.27607 8.05031 0.899902 8.51788 0.899902ZM18.9241 14.1187V18.0562C18.9241 18.5237 18.548 18.8999 18.0804 18.8999H1.76788C1.30031 18.8999 0.924133 18.5237 0.924133 18.0562V14.1187C0.924133 13.6511 1.30031 13.2749 1.76788 13.2749H6.9253L8.64796 14.9976C9.3546 15.7042 10.4937 15.7042 11.2003 14.9976L12.923 13.2749H18.0804C18.548 13.2749 18.9241 13.6511 18.9241 14.1187ZM14.5648 17.2124C14.5648 16.8257 14.2484 16.5093 13.8616 16.5093C13.4749 16.5093 13.1585 16.8257 13.1585 17.2124C13.1585 17.5991 13.4749 17.9155 13.8616 17.9155C14.2484 17.9155 14.5648 17.5991 14.5648 17.2124ZM16.8148 17.2124C16.8148 16.8257 16.4984 16.5093 16.1116 16.5093C15.7249 16.5093 15.4085 16.8257 15.4085 17.2124C15.4085 17.5991 15.7249 17.9155 16.1116 17.9155C16.4984 17.9155 16.8148 17.5991 16.8148 17.2124Z" fill="white"/>
</g>
<defs>
<clipPath id="clip0_1_173">
<rect width="18" height="18" fill="white" transform="translate(0.924133 0.899902)"/>
</clipPath>
</defs>
</svg>
