<svg width="51" height="51" viewBox="0 0 51 51" fill="none" xmlns="http://www.w3.org/2000/svg">
<g clip-path="url(#clip0_1_29)">
<path d="M42.8272 10.2603L34.6338 2.06689C33.7549 1.18799 32.5635 0.689941 31.3233 0.689941H11.3916C8.80374 0.699707 6.70413 2.79932 6.70413 5.38721V46.0122C6.70413 48.6001 8.80374 50.6997 11.3916 50.6997H39.5166C42.1045 50.6997 44.2041 48.6001 44.2041 46.0122V13.5806C44.2041 12.3403 43.7061 11.1392 42.8272 10.2603ZM39.1358 13.1997H31.7041V5.76807L39.1358 13.1997ZM11.3916 46.0122V5.38721H27.0166V15.5435C27.0166 16.8423 28.0616 17.8872 29.3604 17.8872H39.5166V46.0122H11.3916ZM32.0948 22.5747H29.2823C28.8526 22.5747 28.4619 22.8091 28.2569 23.1899C26.4991 26.4224 26.0889 27.3306 25.4639 28.8247C24.1065 25.9829 24.7901 27.1353 22.6709 23.1899C22.4659 22.8091 22.0655 22.5747 21.6358 22.5747H18.8135C17.9053 22.5747 17.3487 23.5513 17.7979 24.3325L22.3194 31.9497L17.7979 39.5669C17.3389 40.3481 17.9053 41.3247 18.8135 41.3247H21.6358C22.0655 41.3247 22.4561 41.0903 22.6612 40.7095C24.7803 36.8032 24.9073 36.3149 25.4541 35.0747C26.9092 38.0239 26.0303 36.6274 28.2471 40.7095C28.4522 41.0903 28.8526 41.3247 29.2823 41.3247H32.0948C33.003 41.3247 33.5596 40.3481 33.1104 39.5669L28.5791 31.9497C28.6475 31.8423 31.5381 27.0181 33.1006 24.3325C33.5596 23.5513 32.9932 22.5747 32.0948 22.5747Z" fill="#217346"/>
</g>
<defs>
<clipPath id="clip0_1_29">
<rect width="50" height="50" fill="white" transform="translate(0.454132 0.699707)"/>
</clipPath>
</defs>
</svg>
