<svg width="19" height="19" viewBox="0 0 19 19" fill="none" xmlns="http://www.w3.org/2000/svg">
<g clip-path="url(#clip0_1_60)">
<path d="M9.25415 0.571045C14.0706 0.571045 17.9729 4.47339 17.9729 9.28979C17.9729 14.1062 14.0706 18.0085 9.25415 18.0085C4.43774 18.0085 0.5354 14.1062 0.5354 9.28979C0.5354 4.47339 4.43774 0.571045 9.25415 0.571045ZM5.17603 10.8367H9.25415V13.3292C9.25415 13.7054 9.71118 13.8953 9.97485 13.6281L13.9932 9.58862C14.1584 9.42339 14.1584 9.15972 13.9932 8.99448L9.97485 4.95151C9.70767 4.68433 9.25415 4.87417 9.25415 5.25034V7.74292H5.17603C4.94399 7.74292 4.75415 7.93276 4.75415 8.16479V10.4148C4.75415 10.6468 4.94399 10.8367 5.17603 10.8367Z" fill="white"/>
</g>
<defs>
<clipPath id="clip0_1_60">
<rect width="18" height="18" fill="white" transform="translate(0.25415 0.289795)"/>
</clipPath>
</defs>
</svg>
