<svg width="43" height="43" viewBox="0 0 43 43" fill="none" xmlns="http://www.w3.org/2000/svg">
<g clip-path="url(#clip0_1_155)">
<path d="M35.5716 3.96729H35.8997C36.4433 3.96729 36.8841 3.52653 36.8841 2.98291V1.01416C36.8841 0.470539 36.4433 0.0297852 35.8997 0.0297852H6.36847C5.82485 0.0297852 5.38409 0.470539 5.38409 1.01416V2.98291C5.38409 3.52653 5.82485 3.96729 6.36847 3.96729H6.69659C6.69659 10.5761 9.33702 17.5686 14.6684 21.0298C9.31331 24.5064 6.69659 31.5216 6.69659 38.0923H6.36847C5.82485 38.0923 5.38409 38.533 5.38409 39.0767V41.0454C5.38409 41.589 5.82485 42.0298 6.36847 42.0298H35.8997C36.4433 42.0298 36.8841 41.589 36.8841 41.0454V39.0767C36.8841 38.533 36.4433 38.0923 35.8997 38.0923H35.5716C35.5716 31.4835 32.9312 24.4909 27.5998 21.0298C32.955 17.5532 35.5716 10.538 35.5716 3.96729ZM10.6341 3.96729H31.6341C31.6341 12.3033 26.9331 19.061 21.1341 19.061C15.3351 19.061 10.6341 12.3034 10.6341 3.96729ZM31.6341 38.0923H10.6341C10.6341 29.7563 15.3351 22.9985 21.1341 22.9985C26.933 22.9985 31.6341 29.7563 31.6341 38.0923Z" fill="#175031"/>
</g>
<defs>
<clipPath id="clip0_1_155">
<rect width="42" height="42" fill="white" transform="translate(0.134094 0.0297852)"/>
</clipPath>
</defs>
</svg>
