<svg width="43" height="43" viewBox="0 0 43 43" fill="none" xmlns="http://www.w3.org/2000/svg">
<g clip-path="url(#clip0_1_124)">
<path d="M38.7228 24.4975C39.4422 23.2794 39.8491 21.98 39.8491 20.4091C39.8491 16.7985 36.7961 13.3888 32.8092 13.3888H29.8167C30.2203 12.338 30.5427 11.0813 30.5427 9.57111C30.5427 3.59973 27.4509 0.97998 22.7276 0.97998C17.6739 0.97998 17.9621 8.76745 16.841 9.88857C14.975 11.7545 12.771 15.3393 11.2005 16.73H3.09912C1.64938 16.73 0.474121 17.9052 0.474121 19.355V39.0425C0.474121 40.4922 1.64938 41.6675 3.09912 41.6675H8.34912C9.57081 41.6675 10.5974 40.8329 10.8903 39.7028C14.5414 39.7849 17.0476 42.9792 25.4756 42.9792C26.0679 42.9792 26.7241 42.98 27.2983 42.98C33.6243 42.98 36.4847 39.7461 36.563 35.1599C37.6555 33.6485 38.2281 31.6226 37.9854 29.6647C38.7937 28.151 39.1062 26.3553 38.7228 24.4975ZM33.6574 28.9133C34.6877 30.6466 33.7608 32.9664 32.5139 33.6358C33.1455 37.6373 31.0695 39.0417 28.1564 39.0417H25.054C19.1773 39.0417 15.3719 35.9392 10.9741 35.9392V20.6675H11.8699C14.1963 20.6675 17.4464 14.8523 19.6251 12.6727C21.9515 10.3463 21.1763 6.46869 22.7276 4.91748C26.6052 4.91748 26.6052 7.62287 26.6052 9.57111C26.6052 12.7843 24.2788 14.2239 24.2788 17.3263H32.8092C34.5409 17.3263 35.9042 18.8776 35.9116 20.4288C35.919 21.9792 34.86 23.5304 34.0848 23.5304C35.1913 24.7243 35.4277 27.2411 33.6574 28.9133ZM7.69287 36.4175C7.69287 37.5048 6.81145 38.3862 5.72412 38.3862C4.6368 38.3862 3.75537 37.5048 3.75537 36.4175C3.75537 35.3302 4.6368 34.4487 5.72412 34.4487C6.81145 34.4487 7.69287 35.3302 7.69287 36.4175Z" fill="#175031"/>
</g>
<defs>
<clipPath id="clip0_1_124">
<rect width="42" height="42" fill="white" transform="translate(0.474121 0.97998)"/>
</clipPath>
</defs>
</svg>
