<svg width="43" height="43" viewBox="0 0 43 43" fill="none" xmlns="http://www.w3.org/2000/svg">
<g clip-path="url(#clip0_1_143)">
<path d="M0.474121 38.3223L8.18853 40.7945L10.9255 38.0575L5.7496 32.8816L0.474121 38.3223ZM10.0947 19.7922C9.68831 20.1509 9.39366 20.6189 9.24595 21.1405C9.09823 21.6621 9.1037 22.2151 9.26169 22.7337L10.2692 26.0404L6.33714 29.9733L13.7667 37.4028L17.6933 33.4761L20.9931 34.486C22.0532 34.8102 23.2051 34.4852 23.9385 33.6537L26.6832 30.4388L13.3003 17.056L10.0947 19.7922ZM41.2326 7.38517L36.3532 2.50576C34.7713 0.923807 32.232 0.844285 30.5535 2.32432L15.1857 15.4462L28.2929 28.5542L41.4141 13.1856C42.8949 11.5072 42.8154 8.96789 41.2326 7.38517Z" fill="#175031"/>
</g>
<defs>
<clipPath id="clip0_1_143">
<rect width="42" height="42" fill="white" transform="translate(0.474121 0.0297852)"/>
</clipPath>
</defs>
</svg>
