<svg width="43" height="43" viewBox="0 0 43 43" fill="none" xmlns="http://www.w3.org/2000/svg">
<g clip-path="url(#clip0_1_136)">
<path d="M39.5091 30.5112V2.94873C39.5091 1.85771 38.6314 0.97998 37.5403 0.97998H10.6341C6.28644 0.97998 2.75909 4.50732 2.75909 8.85498V35.105C2.75909 39.4526 6.28644 42.98 10.6341 42.98H37.5403C38.6314 42.98 39.5091 42.1022 39.5091 41.0112V39.6987C39.5091 39.0835 39.222 38.5257 38.779 38.1647C38.4345 36.9015 38.4345 33.3003 38.779 32.037C39.222 31.6843 39.5091 31.1265 39.5091 30.5112ZM13.2591 11.9722C13.2591 11.7015 13.4806 11.48 13.7513 11.48H31.1419C31.4126 11.48 31.6341 11.7015 31.6341 11.9722V13.6128C31.6341 13.8835 31.4126 14.105 31.1419 14.105H13.7513C13.4806 14.105 13.2591 13.8835 13.2591 13.6128V11.9722ZM13.2591 17.2222C13.2591 16.9515 13.4806 16.73 13.7513 16.73H31.1419C31.4126 16.73 31.6341 16.9515 31.6341 17.2222V18.8628C31.6341 19.1335 31.4126 19.355 31.1419 19.355H13.7513C13.4806 19.355 13.2591 19.1335 13.2591 18.8628V17.2222ZM34.0458 37.73H10.6341C9.18214 37.73 8.00909 36.5569 8.00909 35.105C8.00909 33.6612 9.19034 32.48 10.6341 32.48H34.0458C33.89 33.8827 33.89 36.3272 34.0458 37.73Z" fill="#175031"/>
</g>
<defs>
<clipPath id="clip0_1_136">
<rect width="42" height="42" fill="white" transform="translate(0.134094 0.97998)"/>
</clipPath>
</defs>
</svg>
