<svg width="43" height="43" viewBox="0 0 43 43" fill="none" xmlns="http://www.w3.org/2000/svg">
<path d="M39.3114 15.8185L28.6583 14.2654L23.8968 4.61122C23.0437 2.89039 20.5718 2.86851 19.7114 4.61122L14.9499 14.2654L4.29681 15.8185C2.38639 16.0956 1.62077 18.4508 3.00618 19.7998L10.7135 27.3102L8.89056 37.9196C8.56243 39.8373 10.5822 41.2737 12.2739 40.3768L21.8041 35.3675L31.3343 40.3768C33.026 41.2664 35.0458 39.8373 34.7176 37.9196L32.8947 27.3102L40.602 19.7998C41.9874 18.4508 41.2218 16.0956 39.3114 15.8185ZM29.1395 26.0852L30.8676 36.1768L21.8041 31.4154L12.7406 36.1768L14.4687 26.0852L7.13327 18.9393L17.2687 17.4664L21.8041 8.27893L26.3395 17.4664L36.4749 18.9393L29.1395 26.0852Z" fill="#175031"/>
</svg>
